<?xml version="1.0" encoding="utf-8"?>
<!-- Generator: Adobe Illustrator 27.0.0, SVG Export Plug-In . SVG Version: 6.00 Build 0)  -->
<svg version="1.0" xmlns="http://www.w3.org/2000/svg" xmlns:xlink="http://www.w3.org/1999/xlink" x="0px" y="0px"
	 viewBox="0 0 45.35 45.35" style="enable-background:new 0 0 45.35 45.35;" xml:space="preserve">
<style type="text/css">
	.st0{display:none;}
	.st1{display:inline;}
	.st2{fill:#BADFEA;}
	.st3{fill:#BADFEA;stroke:#BCDFE9;stroke-width:0.1;stroke-miterlimit:10;}
</style>
<g id="Layer_1" class="st0">
	<g class="st1">
		<path class="st2" d="M43.24,10.87c0.33,1.02,0.51,2.11,0.52,3.24v0c0.06,6.09-4.84,11.09-10.93,11.15
			c-6.09,0.06-11.09-4.84-11.15-10.93c-0.03-2.95,1.09-5.73,3.15-7.84c2.06-2.11,4.82-3.28,7.77-3.31
			C37.57,3.14,41.81,6.38,43.24,10.87z M42.62,14.13c-0.06-5.46-4.54-9.85-10-9.8c-2.64,0.03-5.12,1.08-6.97,2.97
			c-1.85,1.89-2.85,4.38-2.83,7.03c0.06,5.46,4.54,9.85,10,9.8C38.28,24.07,42.68,19.59,42.62,14.13L42.62,14.13z"/>
		<path class="st2" d="M43.98,37.35c0.13,0.4,0.17,0.82,0.13,1.25c-0.09,0.81-0.48,1.53-1.11,2.04c-0.63,0.51-1.42,0.74-2.23,0.66
			c-0.81-0.09-1.53-0.48-2.04-1.11c-0.51-0.63-0.74-1.42-0.66-2.23c0.09-0.81,0.48-1.53,1.11-2.04c1.3-1.05,3.22-0.85,4.27,0.46
			C43.69,36.66,43.87,37,43.98,37.35z M39.28,38.85c0.07,0.22,0.18,0.43,0.33,0.61c0.32,0.39,0.77,0.64,1.27,0.7
			c0.5,0.05,1-0.09,1.39-0.41l0,0c0.39-0.32,0.64-0.77,0.7-1.27c0.05-0.5-0.09-1-0.41-1.39c-0.66-0.81-1.85-0.94-2.67-0.29
			c-0.39,0.32-0.64,0.77-0.7,1.27C39.17,38.34,39.2,38.6,39.28,38.85z"/>
		<path class="st2" d="M12.35,9.94c0.16,0.5,0.25,1.03,0.25,1.58c0.03,2.96-2.36,5.4-5.32,5.43c-1.44,0.01-2.79-0.53-3.82-1.54
			c-1.03-1.01-1.6-2.35-1.61-3.79C1.84,10.2,2.38,8.84,3.39,7.82c1-1.03,2.35-1.6,3.79-1.61C9.59,6.18,11.65,7.76,12.35,9.94z
			 M3.19,12.87c0.21,0.65,0.57,1.24,1.07,1.73c0.81,0.79,1.88,1.22,3.01,1.21c2.33-0.02,4.21-1.94,4.19-4.28v0
			C11.45,10.4,11,9.35,10.19,8.55C9.38,7.76,8.32,7.33,7.18,7.34C6.05,7.36,5,7.81,4.2,8.62c-0.79,0.81-1.22,1.88-1.21,3.01
			C3,12.05,3.07,12.47,3.19,12.87z"/>
		<path class="st2" d="M22.39,13.06c0.01,0.04,0.02,0.08,0.01,0.13c-0.02,0.18-0.17,0.31-0.35,0.29l-9.96-0.9
			c-0.18-0.02-0.31-0.17-0.29-0.35c0.02-0.18,0.17-0.31,0.35-0.29l9.96,0.9C22.25,12.84,22.35,12.94,22.39,13.06z"/>
		<path class="st2" d="M40.79,35.77c0.05,0.17-0.04,0.34-0.2,0.4c-0.17,0.06-0.35-0.03-0.41-0.2l-4.05-11.58
			c-0.05-0.17,0.03-0.35,0.2-0.41c0.17-0.06,0.35,0.03,0.41,0.2L40.79,35.77C40.79,35.76,40.79,35.76,40.79,35.77z"/>
	</g>
</g>
<g id="Layer_2">
	<path class="st2" d="M17.05,21.41c1.14-3.16,4.64-4.8,7.8-3.66c3.16,1.14,4.8,4.64,3.66,7.8c-1.14,3.16-4.64,4.8-7.8,3.66
		C17.55,28.06,15.91,24.57,17.05,21.41z"/>
	<path class="st2" d="M2.54,30.78c0.83-2.29,3.36-3.48,5.65-2.65c2.29,0.83,3.48,3.36,2.65,5.65c-0.83,2.29-3.36,3.48-5.65,2.65
		C2.9,35.61,1.71,33.08,2.54,30.78z"/>
	<path class="st2" d="M14.14,8.54c0.88-1.1,2.49-1.28,3.59-0.4c1.1,0.88,1.28,2.49,0.4,3.59c-0.88,1.1-2.49,1.28-3.59,0.4
		C13.44,11.24,13.26,9.64,14.14,8.54z"/>
	<path class="st2" d="M37.22,27.14c-0.26-1.88,1.05-3.61,2.93-3.87c1.88-0.26,3.61,1.05,3.87,2.93c0.26,1.88-1.05,3.61-2.93,3.87
		C39.22,30.32,37.48,29.01,37.22,27.14z"/>
	<line class="st3" x1="17.6" y1="26.02" x2="10.6" y2="30.27"/>
	<line class="st3" x1="16.93" y1="12.58" x2="18.91" y2="18.97"/>
	<line class="st3" x1="28.58" y1="25" x2="37.12" y2="26.53"/>
</g>
</svg>
