<?xml version="1.0" encoding="utf-8"?>
<!-- Generator: Adobe Illustrator 27.0.0, SVG Export Plug-In . SVG Version: 6.00 Build 0)  -->
<svg version="1.0" xmlns="http://www.w3.org/2000/svg" xmlns:xlink="http://www.w3.org/1999/xlink" x="0px" y="0px"
	 viewBox="0 0 45.35 45.35" style="enable-background:new 0 0 45.35 45.35;" xml:space="preserve">
<style type="text/css">
	.st0{display:none;}
	.st1{display:inline;}
	.st2{fill:#BADFEA;}
	.st3{display:inline;fill:#BADFEA;}
	.st4{display:inline;fill:#BADFEA;stroke:#BCDFE9;stroke-width:0.1;stroke-miterlimit:10;}
</style>
<g id="Layer_1" class="st0">
	<g class="st1">
		<path class="st2" d="M43.24,10.87c0.33,1.02,0.51,2.11,0.52,3.24v0c0.06,6.09-4.84,11.09-10.93,11.15
			c-6.09,0.06-11.09-4.84-11.15-10.93c-0.03-2.95,1.09-5.73,3.15-7.84c2.06-2.11,4.82-3.28,7.77-3.31
			C37.57,3.14,41.81,6.38,43.24,10.87z M42.62,14.13c-0.06-5.46-4.54-9.85-10-9.8c-2.64,0.03-5.12,1.08-6.97,2.97
			c-1.85,1.89-2.85,4.38-2.83,7.03c0.06,5.46,4.54,9.85,10,9.8C38.28,24.07,42.68,19.59,42.62,14.13L42.62,14.13z"/>
		<path class="st2" d="M43.98,37.35c0.13,0.4,0.17,0.82,0.13,1.25c-0.09,0.81-0.48,1.53-1.11,2.04c-0.63,0.51-1.42,0.74-2.23,0.66
			c-0.81-0.09-1.53-0.48-2.04-1.11c-0.51-0.63-0.74-1.42-0.66-2.23c0.09-0.81,0.48-1.53,1.11-2.04c1.3-1.05,3.22-0.85,4.27,0.46
			C43.69,36.66,43.87,37,43.98,37.35z M39.28,38.85c0.07,0.22,0.18,0.43,0.33,0.61c0.32,0.39,0.77,0.64,1.27,0.7
			c0.5,0.05,1-0.09,1.39-0.41l0,0c0.39-0.32,0.64-0.77,0.7-1.27c0.05-0.5-0.09-1-0.41-1.39c-0.66-0.81-1.85-0.94-2.67-0.29
			c-0.39,0.32-0.64,0.77-0.7,1.27C39.17,38.34,39.2,38.6,39.28,38.85z"/>
		<path class="st2" d="M12.35,9.94c0.16,0.5,0.25,1.03,0.25,1.58c0.03,2.96-2.36,5.4-5.32,5.43c-1.44,0.01-2.79-0.53-3.82-1.54
			c-1.03-1.01-1.6-2.35-1.61-3.79C1.84,10.2,2.38,8.84,3.39,7.82c1-1.03,2.35-1.6,3.79-1.61C9.59,6.18,11.65,7.76,12.35,9.94z
			 M3.19,12.87c0.21,0.65,0.57,1.24,1.07,1.73c0.81,0.79,1.88,1.22,3.01,1.21c2.33-0.02,4.21-1.94,4.19-4.28v0
			C11.45,10.4,11,9.35,10.19,8.55C9.38,7.76,8.32,7.33,7.18,7.34C6.05,7.36,5,7.81,4.2,8.62c-0.79,0.81-1.22,1.88-1.21,3.01
			C3,12.05,3.07,12.47,3.19,12.87z"/>
		<path class="st2" d="M22.39,13.06c0.01,0.04,0.02,0.08,0.01,0.13c-0.02,0.18-0.17,0.31-0.35,0.29l-9.96-0.9
			c-0.18-0.02-0.31-0.17-0.29-0.35c0.02-0.18,0.17-0.31,0.35-0.29l9.96,0.9C22.25,12.84,22.35,12.94,22.39,13.06z"/>
		<path class="st2" d="M40.79,35.77c0.05,0.17-0.04,0.34-0.2,0.4c-0.17,0.06-0.35-0.03-0.41-0.2l-4.05-11.58
			c-0.05-0.17,0.03-0.35,0.2-0.41c0.17-0.06,0.35,0.03,0.41,0.2L40.79,35.77C40.79,35.76,40.79,35.76,40.79,35.77z"/>
	</g>
</g>
<g id="Layer_2" class="st0">
	<path class="st3" d="M17.05,21.41c1.14-3.16,4.64-4.8,7.8-3.66c3.16,1.14,4.8,4.64,3.66,7.8c-1.14,3.16-4.64,4.8-7.8,3.66
		C17.55,28.06,15.91,24.57,17.05,21.41z"/>
	<path class="st3" d="M2.54,30.78c0.83-2.29,3.36-3.48,5.65-2.65c2.29,0.83,3.48,3.36,2.65,5.65c-0.83,2.29-3.36,3.48-5.65,2.65
		C2.9,35.61,1.71,33.08,2.54,30.78z"/>
	<path class="st3" d="M14.14,8.54c0.88-1.1,2.49-1.28,3.59-0.4c1.1,0.88,1.28,2.49,0.4,3.59c-0.88,1.1-2.49,1.28-3.59,0.4
		C13.44,11.24,13.26,9.64,14.14,8.54z"/>
	<path class="st3" d="M37.22,27.14c-0.26-1.88,1.05-3.61,2.93-3.87c1.88-0.26,3.61,1.05,3.87,2.93c0.26,1.88-1.05,3.61-2.93,3.87
		C39.22,30.32,37.48,29.01,37.22,27.14z"/>
	<line class="st4" x1="17.6" y1="26.02" x2="10.6" y2="30.27"/>
	<line class="st4" x1="16.93" y1="12.58" x2="18.91" y2="18.97"/>
	<line class="st4" x1="28.58" y1="25" x2="37.12" y2="26.53"/>
</g>
<g id="Layer_3">
	<g>
		<path class="st2" d="M5.5,33.35c-0.28-0.89-0.44-1.83-0.45-2.8v0c-0.05-5.26,4.18-9.58,9.44-9.64c5.26-0.05,9.58,4.18,9.64,9.44
			c0.03,2.55-0.94,4.95-2.73,6.77c-1.78,1.82-4.17,2.84-6.72,2.86C10.4,40.03,6.74,37.23,5.5,33.35z M6.04,30.53
			c0.05,4.72,3.92,8.51,8.64,8.46c2.28-0.02,4.42-0.94,6.02-2.57c1.6-1.63,2.47-3.79,2.44-6.07c-0.05-4.72-3.92-8.51-8.64-8.46
			C9.79,21.94,5.99,25.82,6.04,30.53L6.04,30.53z"/>
		<path class="st2" d="M4.86,10.47c-0.11-0.34-0.15-0.71-0.11-1.08c0.07-0.7,0.42-1.32,0.96-1.76c0.55-0.44,1.23-0.64,1.93-0.57
			c0.7,0.08,1.32,0.42,1.76,0.96c0.44,0.55,0.64,1.23,0.57,1.93c-0.07,0.7-0.42,1.32-0.96,1.76c-1.13,0.91-2.78,0.73-3.69-0.4
			C5.11,11.06,4.96,10.77,4.86,10.47z M8.92,9.17C8.86,8.98,8.77,8.8,8.64,8.64c-0.27-0.34-0.67-0.55-1.1-0.6
			C7.1,7.99,6.68,8.12,6.33,8.39l0,0c-0.34,0.27-0.55,0.67-0.6,1.1c-0.05,0.44,0.08,0.86,0.35,1.2c0.57,0.7,1.6,0.81,2.3,0.25
			c0.34-0.27,0.55-0.67,0.6-1.1C9.02,9.61,8.99,9.38,8.92,9.17z"/>
		<path class="st2" d="M32.2,34.15c-0.14-0.43-0.21-0.89-0.22-1.37c-0.03-2.56,2.04-4.67,4.6-4.69c1.24-0.01,2.41,0.46,3.3,1.33
			c0.89,0.87,1.38,2.03,1.39,3.27c0.01,1.24-0.46,2.41-1.33,3.3c-0.87,0.89-2.03,1.38-3.27,1.39C34.58,37.4,32.8,36.04,32.2,34.15z
			 M40.11,31.62c-0.18-0.56-0.49-1.07-0.92-1.49c-0.7-0.68-1.62-1.05-2.6-1.04c-2.02,0.02-3.64,1.68-3.62,3.7v0
			c0.01,0.98,0.4,1.89,1.1,2.58c0.7,0.68,1.62,1.05,2.6,1.05c0.98-0.01,1.89-0.4,2.58-1.1c0.68-0.7,1.06-1.62,1.04-2.6
			C40.28,32.33,40.22,31.96,40.11,31.62z"/>
		<path class="st2" d="M23.52,31.46c-0.01-0.03-0.02-0.07-0.01-0.11c0.01-0.15,0.15-0.27,0.3-0.25l8.6,0.78
			c0.15,0.01,0.27,0.15,0.25,0.3c-0.01,0.15-0.15,0.27-0.3,0.25l-8.6-0.78C23.65,31.64,23.55,31.56,23.52,31.46z"/>
		<path class="st2" d="M7.62,11.84c-0.05-0.14,0.03-0.3,0.17-0.35c0.15-0.05,0.3,0.03,0.35,0.17l3.5,10.01
			c0.04,0.14-0.03,0.3-0.17,0.35c-0.15,0.05-0.3-0.03-0.35-0.17L7.62,11.84C7.62,11.84,7.62,11.84,7.62,11.84z"/>
	</g>
</g>
</svg>
